<?xml version="1.0" standalone="no"?>
<!DOCTYPE svg PUBLIC "-//W3C//DTD SVG 20010904//EN"
 "http://www.w3.org/TR/2001/REC-SVG-20010904/DTD/svg10.dtd">
<svg version="1.0" xmlns="http://www.w3.org/2000/svg"
 width="346.000000pt" height="346.000000pt" viewBox="0 0 346.000000 346.000000"
 preserveAspectRatio="xMidYMid meet">
<metadata>
Created by potrace 1.14, written by Peter Selinger 2001-2017
</metadata>
<g transform="translate(0.000000,346.000000) scale(0.100000,-0.100000)"
fill="#000000" stroke="none">
<path d="M1460 3349 c-41 -5 -151 -18 -245 -30 -196 -23 -368 -59 -614 -128
-176 -50 -208 -65 -245 -115 -21 -27 -21 -39 -24 -639 l-3 -612 31 -150 c71
-345 180 -564 415 -836 140 -162 359 -349 702 -598 117 -85 194 -134 215 -137
29 -5 50 6 188 103 670 468 988 831 1116 1271 57 198 57 195 61 917 3 441 1
680 -6 697 -15 41 -48 57 -200 98 -353 97 -782 160 -1131 165 -102 2 -219 -1
-260 -6z m421 -434 c593 -104 973 -686 825 -1266 -42 -167 -125 -319 -241
-444 l-55 -60 5 80 c4 44 10 152 14 240 8 158 8 161 50 258 51 120 60 173 36
213 -90 149 -405 605 -423 613 -13 6 -32 11 -44 11 -25 0 -58 -27 -58 -47 0
-20 35 -86 149 -281 175 -299 196 -352 161 -417 -31 -57 -58 -43 -115 59 -26
45 -85 133 -133 196 -75 100 -91 115 -119 118 -23 2 -34 -2 -42 -16 -12 -23
-5 -50 57 -212 75 -195 81 -281 63 -850 l-6 -195 -50 -13 c-27 -6 -74 -15
-102 -18 l-53 -7 0 392 0 392 -25 24 c-34 35 -106 35 -140 0 l-25 -24 0 -392
0 -392 -47 6 c-27 3 -71 11 -100 17 l-52 11 -6 62 c-3 34 -7 222 -8 417 -2
401 -3 396 81 610 49 125 56 167 31 183 -36 23 -66 -1 -157 -125 -50 -67 -108
-153 -128 -191 -48 -87 -69 -100 -101 -63 -30 35 -31 101 -2 159 12 23 84 150
160 283 76 132 139 249 139 259 0 48 -63 71 -109 39 -28 -20 -418 -605 -427
-641 -7 -24 8 -72 70 -234 20 -54 26 -91 30 -195 4 -71 9 -174 11 -229 l6
-100 -46 50 c-134 145 -225 322 -266 520 -16 76 -16 291 0 372 85 439 446 780
886 836 74 10 230 6 306 -8z"/>
<path d="M1641 2812 c-40 -21 -71 -73 -71 -117 0 -69 66 -135 135 -135 40 0
90 32 115 72 67 111 -65 243 -179 180z"/>
</g>
</svg>
