<svg width="40" height="40" viewBox="0 0 40 40" fill="none" xmlns="http://www.w3.org/2000/svg">
<path d="M31.2268 21.1719H29.4487C28.8015 21.1719 28.2769 20.6472 28.2769 20C28.2769 19.3528 28.8015 18.8281 29.4487 18.8281H31.2268C31.874 18.8281 32.3987 19.3528 32.3987 20C32.3987 20.6472 31.874 21.1719 31.2268 21.1719Z" fill="#193B67"/>
<path d="M28.6227 26.4879C28.3228 26.4879 28.0228 26.3735 27.794 26.1446L26.5368 24.8872C26.0792 24.4296 26.0792 23.6876 26.5368 23.23C26.9944 22.7724 27.7364 22.7722 28.1941 23.23L29.4513 24.4873C29.909 24.945 29.9089 25.6869 29.4513 26.1446C29.2225 26.3734 28.9226 26.4879 28.6227 26.4879Z" fill="#193B67"/>
<path d="M27.3655 17.1128C27.0656 17.1128 26.7656 16.9985 26.5368 16.7696C26.0792 16.312 26.0792 15.57 26.5368 15.1123L27.794 13.855C28.2517 13.3974 28.9938 13.3972 29.4513 13.855C29.9089 14.3125 29.909 15.0546 29.4513 15.5122L28.1941 16.7696C27.9653 16.9984 27.6653 17.1128 27.3655 17.1128Z" fill="#193B67"/>
<path d="M22.4666 39.9759L20.4125 30.7079C22.1416 30.0299 23.2823 28.262 23.1153 26.354C22.9011 23.9057 20.6949 22.1579 18.2892 22.4808C17.6273 22.5697 17.0213 22.8059 16.4996 23.152C15.6488 23.7165 14.597 23.8576 13.6277 23.5376C13.0334 23.3414 12.3867 23.2734 11.7248 23.3623C9.31914 23.6854 7.65079 25.9534 8.08836 28.3717C8.42938 30.2563 9.995 31.6608 11.8413 31.8588L12.9497 40.0002L22.4666 39.9759Z" fill="#193B67"/>
<path d="M25.7652 0.016875L20.5328 10.7946C22.0128 11.9175 22.6308 13.9292 21.9524 15.72C21.082 18.018 18.4845 19.0999 16.257 18.1346C15.6441 17.869 15.1249 17.4769 14.7168 17.0019C14.0511 16.2272 13.0773 15.8052 12.0576 15.8495C11.4324 15.8767 10.7915 15.7662 10.1786 15.5006C7.95111 14.5353 6.96096 11.8988 8.03838 9.69047C8.87799 7.96953 10.7658 7.04367 12.5964 7.35547L15.8698 0L25.7652 0.016875Z" fill="#193B67"/>
</svg>
