<svg width="30" height="30" viewBox="0 0 30 30" fill="none" xmlns="http://www.w3.org/2000/svg">
<path d="M26.8598 22.3054C26.3405 21.9191 25.6064 22.027 25.2201 22.5462C25.0077 22.8318 24.7803 23.1119 24.5444 23.3788C24.1158 23.8637 24.1613 24.6043 24.6462 25.033C24.8692 25.2301 25.146 25.3269 25.4219 25.3269C25.746 25.3269 26.0687 25.1931 26.3003 24.9311C26.5797 24.6151 26.849 24.2833 27.1006 23.9451C27.4869 23.4259 27.3791 22.6917 26.8598 22.3054Z" fill="#193B67"/>
<path d="M28.8197 16.8098C28.1877 16.6721 27.563 17.0732 27.4254 17.7055C27.3496 18.0534 27.2581 18.4019 27.1531 18.7415C26.9621 19.3599 27.3085 20.0161 27.9268 20.2071C28.0421 20.2427 28.1585 20.2596 28.2731 20.2596C28.7735 20.2596 29.2369 19.9366 29.3924 19.4334C29.517 19.0304 29.6256 18.6167 29.7155 18.2041C29.8531 17.5717 29.4521 16.9475 28.8197 16.8098Z" fill="#193B67"/>
<path d="M21.219 26.0585C20.9079 26.2322 20.5858 26.3945 20.2616 26.5409C19.6718 26.8073 19.4096 27.5014 19.6759 28.0913C19.8716 28.5246 20.2981 28.7811 20.7446 28.7811C20.9059 28.7811 21.0697 28.7476 21.2263 28.677C21.6108 28.5033 21.9927 28.3108 22.3616 28.1049C22.9268 27.7894 23.1291 27.0755 22.8135 26.5104C22.4981 25.9454 21.7842 25.7431 21.219 26.0585Z" fill="#193B67"/>
<path d="M13.8282 5.625V14.5146L9.53096 18.8118C9.07334 19.2694 9.07334 20.0114 9.53096 20.469C9.75982 20.6979 10.0596 20.8123 10.3596 20.8123C10.6595 20.8123 10.9595 20.6978 11.1883 20.469L15.8287 15.8286C16.0485 15.6089 16.1719 15.3108 16.1719 15V5.625C16.1719 4.97777 15.6473 4.45312 15 4.45312C14.3528 4.45312 13.8282 4.97777 13.8282 5.625Z" fill="#193B67"/>
<path d="M28.8281 2.51953C28.1809 2.51953 27.6562 3.04418 27.6562 3.69141V6.94547C24.9286 2.66766 20.1651 0 15 0C10.9934 0 7.22654 1.56029 4.39336 4.39336C1.56029 7.22654 0 10.9934 0 15C0 19.0066 1.56029 22.7735 4.39336 25.6066C7.22654 28.4397 10.9934 30 15 30C15.0099 30 15.0195 29.9988 15.0293 29.9985C15.0391 29.9988 15.0487 30 15.0586 30C15.4809 30 15.9074 29.9822 16.3264 29.9471C16.9713 29.8931 17.4504 29.3265 17.3964 28.6816C17.3423 28.0366 16.7765 27.5573 16.1308 27.6116C15.7767 27.6412 15.416 27.6562 15.0586 27.6562C15.0487 27.6562 15.0391 27.6575 15.0293 27.6577C15.0195 27.6575 15.0099 27.6562 15 27.6562C8.02131 27.6562 2.34375 21.9787 2.34375 15C2.34375 8.02131 8.02131 2.34375 15 2.34375C19.4975 2.34375 23.6342 4.741 25.8947 8.55469H22.6724C22.0252 8.55469 21.5006 9.07934 21.5006 9.72656C21.5006 10.3738 22.0252 10.8984 22.6724 10.8984H26.25C26.9637 10.8984 27.6313 10.6979 28.1998 10.3504C28.2364 10.3296 28.2715 10.3071 28.3051 10.2829C29.3249 9.61195 30 8.45783 30 7.14844V3.69141C30 3.04418 29.4754 2.51953 28.8281 2.51953Z" fill="#193B67"/>
</svg>
