<svg width="40" height="40" viewBox="0 0 40 40" fill="none" xmlns="http://www.w3.org/2000/svg">
<circle cx="20" cy="20" r="20" fill="#C31C22"/>
<path d="M24.4999 11.0037L22.1657 11C19.5434 11 17.8487 12.7387 17.8487 15.4298V17.4723H15.5018C15.299 17.4723 15.1348 17.6367 15.1348 17.8395V20.7988C15.1348 21.0016 15.2992 21.1658 15.5018 21.1658H17.8487V28.633C17.8487 28.8358 18.0129 29 18.2157 29H21.2778C21.4806 29 21.6448 28.8356 21.6448 28.633V21.1658H24.3889C24.5917 21.1658 24.7559 21.0016 24.7559 20.7988L24.757 17.8395C24.757 17.7421 24.7183 17.6489 24.6495 17.5799C24.5808 17.511 24.4872 17.4723 24.3898 17.4723H21.6448V15.7409C21.6448 14.9087 21.8431 14.4862 22.9271 14.4862L24.4995 14.4857C24.7022 14.4857 24.8664 14.3212 24.8664 14.1186V11.3708C24.8664 11.1683 24.7023 11.0041 24.4999 11.0037Z" fill="white"/>
</svg>
