<svg width="60" height="60" viewBox="0 0 60 60" fill="none" xmlns="http://www.w3.org/2000/svg">
<g clip-path="url(#clip0)">
<path d="M52.2217 29.1048C53.7698 27.5196 54.7266 25.3543 54.7266 22.9688C54.7266 18.1225 50.7838 14.1797 45.9375 14.1797C41.0912 14.1797 37.1484 18.1225 37.1484 22.9688C37.1484 25.341 38.0947 27.4952 39.6278 29.0781C37.9027 29.7483 36.3374 30.8011 35.0641 32.1611C32.2905 29.278 27.7065 29.2812 24.9359 32.1611C23.6626 30.8012 22.0973 29.7484 20.3722 29.0782C21.9052 27.4954 22.8516 25.3411 22.8516 22.9688C22.8516 18.1225 18.9088 14.1797 14.0625 14.1797C9.21621 14.1797 5.27344 18.1225 5.27344 22.9688C5.27344 25.3543 6.23016 27.5196 7.77832 29.1048C3.22664 30.9118 0 35.3596 0 40.5469V58.125C0 59.0958 0.787031 59.8828 1.75781 59.8828H58.2422C59.213 59.8828 60 59.0958 60 58.125V40.5469C60 35.3596 56.7734 30.9118 52.2217 29.1048ZM45.9375 17.6953C48.8453 17.6953 51.2109 20.061 51.2109 22.9688C51.2109 25.8765 48.8453 28.2422 45.9375 28.2422C43.0297 28.2422 40.6641 25.8765 40.6641 22.9688C40.6641 20.061 43.0297 17.6953 45.9375 17.6953ZM30 33.5156C31.9385 33.5156 33.5156 35.0927 33.5156 37.0313C33.5156 38.9698 31.9385 40.5469 30 40.5469C28.0615 40.5469 26.4844 38.9698 26.4844 37.0313C26.4844 35.0927 28.0615 33.5156 30 33.5156ZM14.0625 17.6953C16.9703 17.6953 19.3359 20.061 19.3359 22.9688C19.3359 25.8765 16.9703 28.2422 14.0625 28.2422C11.1547 28.2422 8.78906 25.8765 8.78906 22.9688C8.78906 20.061 11.1547 17.6953 14.0625 17.6953ZM3.51562 40.5469C3.51562 35.7006 7.4584 31.7578 12.3047 31.7578H15.9375C18.8014 31.7578 21.5012 33.1792 23.1371 35.5065C22.6752 37.5867 23.175 39.7325 24.4893 41.3904C21.5153 42.8009 19.4531 45.8317 19.4531 49.3359V56.3672H3.51562V40.5469ZM22.9688 56.3672V49.3359C22.9688 46.4282 25.3344 44.0625 28.2422 44.0625H31.7578C34.6656 44.0625 37.0312 46.4282 37.0312 49.3359V56.3672H22.9688ZM56.4844 56.3672H40.5469V49.3359C40.5469 45.8316 38.4847 42.8009 35.5107 41.3904C36.8237 39.7341 37.3252 37.5887 36.8629 35.5066C38.4988 33.1791 41.1982 31.7578 44.0625 31.7578H47.6953C52.5416 31.7578 56.4844 35.7006 56.4844 40.5469V56.3672Z" fill="#193B67"/>
<path d="M24.9983 14.2957C27.0053 16.1505 28.9948 17.3824 29.0784 17.434C29.6436 17.7818 30.3563 17.7818 30.9214 17.434C31.0052 17.3824 32.9946 16.1505 35.0016 14.2957C37.9036 11.6137 39.375 9.00642 39.375 6.54631C39.375 0.959272 33.8191 -1.66327 30 1.44044C26.1723 -1.67018 20.625 0.974038 20.625 6.54631C20.625 9.00642 22.0964 11.6137 24.9983 14.2957ZM28.5204 5.00962C29.2119 6.08763 30.7891 6.08599 31.4796 5.00962C33.09 2.49853 35.8594 3.67017 35.8594 6.54631C35.8594 8.94384 32.5748 12.0345 30.0041 13.8297C27.844 12.3056 24.1406 9.15373 24.1406 6.54631C24.1406 3.67837 26.9051 2.49138 28.5204 5.00962Z" fill="#193B67"/>
</g>
<defs>
<clipPath id="clip0">
<rect width="60" height="60" fill="white"/>
</clipPath>
</defs>
</svg>
