<svg width="136" height="53" viewBox="0 0 136 53" fill="none" xmlns="http://www.w3.org/2000/svg">
<path d="M24.161 31L23.68 20.825C23.458 16.015 23.3593 12.5247 23.384 10.354H23.273C22.4097 13.5853 21.423 16.7673 20.313 19.9L16.65 30.704H13.172L9.842 20.048C8.83067 16.718 7.992 13.4867 7.326 10.354H7.252C7.104 14.7447 6.956 18.2843 6.808 20.973L6.253 31H1.998L3.663 6.062H9.657L12.913 16.089C13.7763 18.9503 14.541 21.8363 15.207 24.747H15.318C16.0827 21.6637 16.909 18.7653 17.797 16.052L21.238 6.062H27.158L28.601 31H24.161ZM47.1805 16.237V19.937H37.7825V27.263H48.2905V31H33.2315V6.062H47.7355V9.799H37.7825V16.237H47.1805ZM52.2735 30.926V6.432C54.5428 6.062 56.9602 5.877 59.5255 5.877C63.9902 5.877 67.3695 6.839 69.6635 8.763C72.2782 10.8597 73.5855 13.9183 73.5855 17.939C73.5855 22.2063 72.2905 25.5117 69.7005 27.855C67.2092 30.1243 63.4475 31.259 58.4155 31.259C56.1462 31.259 54.0988 31.148 52.2735 30.926ZM56.8245 9.688V27.559C57.2438 27.633 58.0825 27.67 59.3405 27.67C62.3252 27.6947 64.6438 26.893 66.2965 25.265C67.9492 23.6123 68.7755 21.2197 68.7755 18.087C68.8002 15.349 68.0355 13.2277 66.4815 11.723C64.9522 10.1937 62.7692 9.429 59.9325 9.429C58.6498 9.429 57.6138 9.51533 56.8245 9.688ZM77.5303 6.062H82.0813V31H77.5303V6.062ZM97.5352 31.407H97.4982C94.0202 31.407 91.2328 30.223 89.1362 27.855C87.0395 25.4623 85.9912 22.416 85.9912 18.716C85.9912 14.8927 87.0888 11.76 89.2842 9.318C91.5042 6.876 94.3655 5.655 97.8682 5.655C101.396 5.655 104.195 6.85133 106.267 9.244C108.364 11.612 109.412 14.6213 109.412 18.272C109.412 22.3667 108.302 25.5857 106.082 27.929C103.887 30.2477 101.038 31.407 97.5352 31.407ZM97.6832 27.744H97.7202C99.8662 27.744 101.544 26.8683 102.752 25.117C103.986 23.3657 104.602 21.1457 104.602 18.457C104.602 15.941 103.998 13.795 102.789 12.019C101.581 10.2183 99.8908 9.318 97.7202 9.318C95.5495 9.318 93.8475 10.2183 92.6142 12.019C91.4055 13.795 90.8012 15.9903 90.8012 18.605C90.8012 21.195 91.4178 23.3657 92.6512 25.117C93.8845 26.8683 95.5618 27.744 97.6832 27.744ZM117.519 31H113.301V6.062H118.518L124.956 16.755C126.658 19.641 128.076 22.4283 129.211 25.117L129.285 25.08C129.014 22.3913 128.878 18.9503 128.878 14.757V6.062H133.096V31H128.36L121.848 20.011C119.973 16.7797 118.493 13.9183 117.408 11.427L117.26 11.464C117.433 14.4733 117.519 18.013 117.519 22.083V31Z" fill="white"/>
<path d="M6.288 48.256L6.456 48.712C5.912 48.984 5.184 49.12 4.272 49.12C3.768 49.12 3.292 49.04 2.844 48.88C2.396 48.712 1.988 48.468 1.62 48.148C1.26 47.82 0.972 47.388 0.756 46.852C0.548 46.308 0.444 45.692 0.444 45.004C0.444 43.78 0.812 42.772 1.548 41.98C2.292 41.188 3.292 40.792 4.548 40.792C5.332 40.792 5.956 40.908 6.42 41.14L6.24 41.62C5.776 41.388 5.216 41.272 4.56 41.272C3.464 41.272 2.604 41.608 1.98 42.28C1.356 42.944 1.044 43.856 1.044 45.016C1.044 46.128 1.344 47.008 1.944 47.656C2.552 48.304 3.392 48.628 4.464 48.628C5.168 48.628 5.776 48.504 6.288 48.256ZM7.81575 49V40.912H8.39175V48.52H11.9918V49H7.81575ZM13.1947 40.912H13.7707V49H13.1947V40.912ZM16.2899 49H15.7379V40.912H16.2779L19.4219 45.688C20.1099 46.744 20.6179 47.592 20.9459 48.232L20.9699 48.22C20.9059 47.388 20.8739 46.296 20.8739 44.944V40.912H21.4259V49H20.8979L17.8139 44.296C17.0459 43.12 16.5219 42.248 16.2419 41.68L16.2179 41.692C16.2659 42.492 16.2899 43.564 16.2899 44.908V49ZM23.3783 40.912H23.9543V49H23.3783V40.912ZM31.2255 48.256L31.3935 48.712C30.8495 48.984 30.1215 49.12 29.2095 49.12C28.7055 49.12 28.2295 49.04 27.7815 48.88C27.3335 48.712 26.9255 48.468 26.5575 48.148C26.1975 47.82 25.9095 47.388 25.6935 46.852C25.4855 46.308 25.3815 45.692 25.3815 45.004C25.3815 43.78 25.7495 42.772 26.4855 41.98C27.2295 41.188 28.2295 40.792 29.4855 40.792C30.2695 40.792 30.8935 40.908 31.3575 41.14L31.1775 41.62C30.7135 41.388 30.1535 41.272 29.4975 41.272C28.4015 41.272 27.5415 41.608 26.9175 42.28C26.2935 42.944 25.9815 43.856 25.9815 45.016C25.9815 46.128 26.2815 47.008 26.8815 47.656C27.4895 48.304 28.3295 48.628 29.4015 48.628C30.1055 48.628 30.7135 48.504 31.2255 48.256ZM32.5493 50.452L32.0933 50.512C32.1893 50.256 32.3013 49.86 32.4293 49.324C32.5653 48.788 32.6613 48.336 32.7173 47.968L33.4733 47.848C33.3693 48.272 33.2133 48.764 33.0053 49.324C32.8053 49.892 32.6533 50.268 32.5493 50.452ZM41.6402 46.168H38.4362L37.4402 49H36.8522L39.7802 40.912H40.3322L43.2482 49H42.6602L41.6402 46.168ZM38.6162 45.688H41.4602L40.4762 42.988C40.3482 42.604 40.2082 42.128 40.0562 41.56H40.0322C39.9442 41.92 39.8042 42.388 39.6122 42.964L38.6162 45.688ZM48.2877 44.5V44.98H45.0597V48.52H48.6717V49H44.4837V40.912H48.4797V41.392H45.0597V44.5H48.2877ZM49.6056 48.58L49.8216 48.112C50.3336 48.464 50.9216 48.64 51.5856 48.64C52.1856 48.64 52.6616 48.488 53.0136 48.184C53.3656 47.872 53.5416 47.464 53.5416 46.96C53.5416 46.512 53.4136 46.144 53.1576 45.856C52.9016 45.56 52.4816 45.3 51.8976 45.076C50.5136 44.58 49.8216 43.836 49.8216 42.844C49.8216 42.252 50.0416 41.764 50.4816 41.38C50.9216 40.988 51.4856 40.792 52.1736 40.792C52.8616 40.792 53.3976 40.916 53.7816 41.164L53.5656 41.656C53.2136 41.4 52.7376 41.272 52.1376 41.272C51.5456 41.272 51.1056 41.424 50.8176 41.728C50.5296 42.032 50.3856 42.372 50.3856 42.748C50.3856 43.18 50.5136 43.532 50.7696 43.804C51.0336 44.068 51.4656 44.316 52.0656 44.548C52.7696 44.836 53.2856 45.156 53.6136 45.508C53.9416 45.86 54.1056 46.324 54.1056 46.9C54.1056 47.524 53.8816 48.052 53.4336 48.484C52.9936 48.908 52.3616 49.12 51.5376 49.12C51.1856 49.12 50.8256 49.068 50.4576 48.964C50.0976 48.86 49.8136 48.732 49.6056 48.58ZM57.176 49V41.392H54.536V40.912H60.392V41.392H57.752V49H57.176ZM61.2181 40.912H61.7941V44.476H66.2581V40.912H66.8341V49H66.2581V44.956H61.7941V49H61.2181V40.912ZM72.5807 44.5V44.98H69.3527V48.52H72.9647V49H68.7767V40.912H72.7727V41.392H69.3527V44.5H72.5807ZM76.1721 49V41.392H73.5321V40.912H79.3881V41.392H76.7481V49H76.1721ZM80.2142 40.912H80.7902V49H80.2142V40.912ZM88.0614 48.256L88.2294 48.712C87.6854 48.984 86.9574 49.12 86.0454 49.12C85.5414 49.12 85.0654 49.04 84.6174 48.88C84.1694 48.712 83.7614 48.468 83.3934 48.148C83.0334 47.82 82.7454 47.388 82.5294 46.852C82.3214 46.308 82.2174 45.692 82.2174 45.004C82.2174 43.78 82.5854 42.772 83.3214 41.98C84.0654 41.188 85.0654 40.792 86.3214 40.792C87.1054 40.792 87.7294 40.908 88.1934 41.14L88.0134 41.62C87.5494 41.388 86.9894 41.272 86.3334 41.272C85.2374 41.272 84.3774 41.608 83.7534 42.28C83.1294 42.944 82.8174 43.856 82.8174 45.016C82.8174 46.128 83.1174 47.008 83.7174 47.656C84.3254 48.304 85.1654 48.628 86.2374 48.628C86.9414 48.628 87.5494 48.504 88.0614 48.256ZM97.9622 49H97.2422C97.1622 48.92 97.0262 48.784 96.8342 48.592C96.6502 48.392 96.4902 48.224 96.3542 48.088C95.6262 48.784 94.8062 49.132 93.8942 49.132C93.2382 49.132 92.6942 48.916 92.2622 48.484C91.8302 48.044 91.6142 47.508 91.6142 46.876C91.6142 45.908 92.1462 45.112 93.2102 44.488V44.452C92.7462 43.828 92.5142 43.24 92.5142 42.688C92.5142 42.176 92.6782 41.732 93.0062 41.356C93.3342 40.972 93.7782 40.78 94.3382 40.78C94.7782 40.78 95.1462 40.928 95.4422 41.224C95.7382 41.52 95.8862 41.908 95.8862 42.388C95.8862 42.836 95.7422 43.232 95.4542 43.576C95.1662 43.92 94.6822 44.26 94.0022 44.596V44.632C94.3702 45.064 95.1542 45.964 96.3542 47.332C96.7302 46.764 97.0102 45.9 97.1942 44.74H97.7342C97.5102 46.092 97.1582 47.068 96.6782 47.668C96.8942 47.884 97.3222 48.328 97.9622 49ZM94.0262 48.664H94.0382C94.8302 48.664 95.4942 48.356 96.0302 47.74C95.8942 47.58 95.5262 47.168 94.9262 46.504C94.3342 45.84 93.8502 45.288 93.4742 44.848C92.6182 45.36 92.1902 46.012 92.1902 46.804C92.1902 47.348 92.3622 47.796 92.7062 48.148C93.0502 48.492 93.4902 48.664 94.0262 48.664ZM94.2542 41.248H94.2422C93.8662 41.248 93.5742 41.384 93.3662 41.656C93.1582 41.92 93.0542 42.248 93.0542 42.64C93.0542 43.128 93.2742 43.672 93.7142 44.272C94.2582 43.984 94.6662 43.704 94.9382 43.432C95.2102 43.152 95.3462 42.824 95.3462 42.448C95.3462 42.12 95.2542 41.84 95.0702 41.608C94.8862 41.368 94.6142 41.248 94.2542 41.248ZM101.086 48.58L101.302 48.112C101.814 48.464 102.402 48.64 103.066 48.64C103.666 48.64 104.142 48.488 104.494 48.184C104.846 47.872 105.022 47.464 105.022 46.96C105.022 46.512 104.894 46.144 104.638 45.856C104.382 45.56 103.962 45.3 103.378 45.076C101.994 44.58 101.302 43.836 101.302 42.844C101.302 42.252 101.522 41.764 101.962 41.38C102.402 40.988 102.966 40.792 103.654 40.792C104.342 40.792 104.878 40.916 105.262 41.164L105.046 41.656C104.694 41.4 104.218 41.272 103.618 41.272C103.026 41.272 102.586 41.424 102.298 41.728C102.01 42.032 101.866 42.372 101.866 42.748C101.866 43.18 101.994 43.532 102.25 43.804C102.514 44.068 102.946 44.316 103.546 44.548C104.25 44.836 104.766 45.156 105.094 45.508C105.422 45.86 105.586 46.324 105.586 46.9C105.586 47.524 105.362 48.052 104.914 48.484C104.474 48.908 103.842 49.12 103.018 49.12C102.666 49.12 102.306 49.068 101.938 48.964C101.578 48.86 101.294 48.732 101.086 48.58ZM107.12 49V41.008C107.696 40.904 108.276 40.852 108.86 40.852C109.812 40.852 110.524 41.08 110.996 41.536C111.412 41.928 111.62 42.456 111.62 43.12C111.62 43.784 111.432 44.324 111.056 44.74C110.528 45.34 109.736 45.64 108.68 45.64C108.24 45.64 107.912 45.608 107.696 45.544V49H107.12ZM107.696 41.428V45.04C107.928 45.12 108.272 45.16 108.728 45.16C109.464 45.16 110.032 44.992 110.432 44.656C110.84 44.312 111.044 43.82 111.044 43.18C111.044 42.564 110.844 42.104 110.444 41.8C110.044 41.488 109.508 41.332 108.836 41.332C108.364 41.332 107.984 41.364 107.696 41.428ZM116.136 46.168H112.932L111.936 49H111.348L114.276 40.912H114.828L117.744 49H117.156L116.136 46.168ZM113.112 45.688H115.956L114.972 42.988C114.844 42.604 114.704 42.128 114.552 41.56H114.528C114.44 41.92 114.3 42.388 114.108 42.964L113.112 45.688Z" fill="white"/>
</svg>
