<svg width="60" height="58" viewBox="0 0 60 58" fill="none" xmlns="http://www.w3.org/2000/svg">
<path d="M54.9656 5.81515C48.0346 -1.1549 36.5961 -0.808413 29.9971 6.43669C23.3977 -0.808157 11.9596 -1.15502 5.02871 5.81528C-1.86351 12.679 -1.62871 23.9815 5.47265 30.6062C1.83958 34.0761 3.92091 40.3112 8.86592 40.919C8.5697 44.3051 11.4517 47.4103 14.8608 47.3527C15.0698 51.0803 18.8111 53.7485 22.398 52.7634C23.5748 57.2044 29.2317 58.7219 32.4771 55.4534C34.3204 53.6212 35.7862 52.4658 35.8797 49.6909C38.9253 49.606 41.5605 46.935 41.6069 43.8912C44.6818 43.8438 47.3608 41.1638 47.4081 38.0899C50.598 38.0414 53.3638 35.1623 53.2153 31.9122L54.9653 30.1623C61.678 23.4497 61.678 12.5276 54.9656 5.81515ZM8.11127 33.408L9.75495 31.7643C10.1798 31.3395 10.7376 31.1271 11.2957 31.1271C13.2091 31.1144 14.2079 33.4802 12.8361 34.8455L11.1924 36.4891C9.06481 38.4479 6.15227 35.5365 8.11127 33.408ZM12.6944 41.3302C12.6944 40.7481 12.9211 40.2009 13.3326 39.7894L14.9772 38.145C15.3886 37.734 15.9353 37.5077 16.5169 37.5077C18.4466 37.5044 19.4248 39.8646 18.0575 41.2271L16.6072 42.6774C16.1639 43.1798 15.5549 43.5197 14.8731 43.5088C13.7022 43.5329 12.6702 42.5013 12.6944 41.3302ZM19.3273 48.4786C18.4822 47.6676 18.4822 46.2085 19.3273 45.3975L20.7776 43.9471C21.6232 42.9433 23.1076 42.8126 24.0523 43.7537C24.9017 44.6033 24.9017 45.9852 24.0523 46.8349L22.4085 48.4787C21.5591 49.3285 20.1769 49.3284 19.3273 48.4786ZM31.4008 51.0895L29.7571 52.7332C29.3456 53.1447 28.7984 53.3714 28.2165 53.3714C27.6345 53.3714 27.0873 53.1447 26.6758 52.7332C25.8308 51.9221 25.8304 50.463 26.6759 49.652L28.3195 48.0083C29.1689 47.1588 30.5512 47.1588 31.4006 48.0082C32.2459 48.8193 32.2461 50.2784 31.4008 51.0895ZM48.7325 33.6128C47.9214 34.4579 46.4623 34.4581 45.6513 33.6128L37.0909 25.0524L34.3708 27.7726L42.9311 36.333C43.7805 37.1825 43.7805 38.5646 42.9311 39.4141C42.0816 40.2639 40.6995 40.2636 39.85 39.4141L31.4347 30.9989L31.2896 30.8537L28.5694 33.5739L28.7146 33.7191L37.1298 42.1343C37.9793 42.9838 37.9793 44.366 37.1298 45.2156C36.2803 46.0651 34.898 46.0651 34.0485 45.2156L34.0468 45.2173C32.4838 43.7062 30.2994 43.2086 28.3264 43.7246C27.6983 41.1582 25.1184 39.2152 22.524 39.2718C22.3982 36.5094 20.0629 34.014 17.3031 33.7159C17.6673 28.9764 12.4621 25.7125 8.35427 28.0472C2.63333 22.9369 2.28095 13.966 7.74915 8.53534C13.1859 3.06047 22.1691 3.42324 27.2772 9.15688L22.5216 13.9125L26.3323 17.7232C29.2594 20.6506 33.7701 21.0533 37.1333 18.9319L48.7329 30.5316C49.5819 31.381 49.5819 32.7632 48.7325 33.6128ZM52.2454 27.4421L51.6592 28.0281C51.5924 27.9545 51.5236 27.8822 51.4528 27.8114L37.2844 13.6429L35.9243 15.003C34.0298 16.8975 30.9471 16.8977 29.0522 15.003L27.9617 13.9125L33.3389 8.53534C46.4007 -3.48679 64.265 14.3887 52.2454 27.4421Z" fill="#193B67"/>
</svg>
