<svg width="30" height="30" viewBox="0 0 30 30" fill="none" xmlns="http://www.w3.org/2000/svg">
<g clip-path="url(#clip0)">
<path d="M25.8723 7.7986C24.8155 4.38329 22.0371 1.60413 18.6218 0.547154C15.0071 -0.572572 11.1611 0.0497517 8.22548 2.2128C5.31149 4.3609 3.57202 7.802 3.57202 11.4175C3.57202 13.9116 4.36104 16.2812 5.85325 18.2697L15.0012 30.0005L24.1492 18.2688C26.3823 15.2913 27.0108 11.475 25.8723 7.7986ZM15.0012 17.5716C11.6082 17.5716 8.84704 14.8105 8.84704 11.4174C8.84704 8.02436 11.6082 5.26325 15.0012 5.26325C18.3942 5.26325 21.1554 8.02436 21.1554 11.4174C21.1554 14.8105 18.3942 17.5716 15.0012 17.5716Z" fill="#193B67"/>
<path d="M15.0013 7.03271C12.5776 7.03271 10.6055 8.99309 10.6055 11.4168C10.6055 13.8405 12.5776 15.8126 15.0013 15.8126C17.425 15.8126 19.3971 13.8405 19.3971 11.4168C19.3971 8.99309 17.425 7.03271 15.0013 7.03271Z" fill="#193B67"/>
</g>
<defs>
<clipPath id="clip0">
<rect width="30" height="30" fill="white"/>
</clipPath>
</defs>
</svg>
