<svg width="60" height="60" viewBox="0 0 60 60" fill="none" xmlns="http://www.w3.org/2000/svg">
<path d="M51.7438 15.7224C49.6047 8.81161 44.0483 3.20946 37.2429 1.10184C29.9959 -1.14242 22.4407 0.0758654 16.5147 4.44426C13.6753 6.53735 11.3191 9.29817 9.70111 12.4279C8.02885 15.6626 7.14502 19.3043 7.14502 22.9595C7.14502 27.9456 8.72225 32.684 11.7063 36.6624L30.0023 60L48.2756 36.6922L48.2985 36.6624C52.764 30.7082 54.0199 23.0758 51.7438 15.7224ZM45.496 34.538L30.0023 54.3025L14.5085 34.538C11.9919 31.176 10.6616 27.1725 10.6616 22.9595C10.6616 16.8033 13.6297 10.9398 18.6014 7.27493C23.6187 3.57637 30.0341 2.55087 36.2027 4.46102C41.9158 6.23032 46.5837 10.9438 48.3847 16.7621C50.3216 23.0201 49.2687 29.4982 45.496 34.538Z" fill="#193B67"/>
<path d="M30.0023 10.6519C23.2159 10.6519 17.6946 16.1731 17.6946 22.9596C17.6946 29.746 23.2159 35.2673 30.0023 35.2673C36.7887 35.2673 42.31 29.746 42.31 22.9596C42.31 16.1731 36.7887 10.6519 30.0023 10.6519ZM30.0023 31.7509C25.1548 31.7509 21.211 27.8072 21.211 22.9596C21.211 18.1121 25.1547 14.1683 30.0023 14.1683C34.8499 14.1683 38.7936 18.112 38.7936 22.9596C38.7936 27.8071 34.8498 31.7509 30.0023 31.7509Z" fill="#193B67"/>
</svg>
