<svg width="41" height="45" viewBox="0 0 41 45" fill="none" xmlns="http://www.w3.org/2000/svg">
<path d="M20.5002 31.7909C27.1146 31.7909 32.4767 26.4289 32.4767 19.8144C32.4767 13.2 27.1146 7.83789 20.5002 7.83789C13.8858 7.83789 8.52368 13.2 8.52368 19.8144C8.52368 26.4289 13.8858 31.7909 20.5002 31.7909Z" fill="#193B67"/>
<path d="M34.573 5.82913C30.814 2.07018 25.8161 0 20.5001 0C15.184 0 10.1861 2.07018 6.42712 5.82913C2.66808 9.58826 0.5979 14.5861 0.5979 19.9022C0.5979 29.2807 7.15451 37.3776 16.2631 39.3507L20.5001 45L24.7371 39.3506C33.8456 37.3775 40.4022 29.2807 40.4022 19.9022C40.4022 14.5861 38.332 9.58826 34.573 5.82913ZM20.5001 5.19569C28.5607 5.19569 35.1184 11.7535 35.1184 19.8141C35.1184 27.8746 28.5607 34.4325 20.5001 34.4325C12.4394 34.4325 5.88166 27.8746 5.88166 19.8141C5.88166 11.7535 12.4394 5.19569 20.5001 5.19569Z" fill="#193B67"/>
</svg>
