<svg width="20" height="20" viewBox="0 0 20 20" fill="none" xmlns="http://www.w3.org/2000/svg">
<g clip-path="url(#clip0)">
<path d="M18.934 8.10147L3.0277 0.404436C1.97995 -0.103382 0.718946 0.334314 0.211086 1.38207C-0.047867 1.91632 -0.0695253 2.53498 0.151423 3.08608L2.63629 9.29609H20C19.8172 8.77222 19.4337 8.34247 18.934 8.10147Z" fill="white"/>
<path d="M2.63617 10.7017L0.151309 16.9131C-0.279882 17.9975 0.249677 19.2262 1.33412 19.6574C1.57965 19.7551 1.84136 19.8058 2.10558 19.8069C2.42486 19.8069 2.74002 19.7349 3.02755 19.5961L18.9338 11.8963C19.4336 11.6552 19.8171 11.2255 19.9999 10.7017H2.63617Z" fill="white"/>
</g>
<defs>
<clipPath id="clip0">
<rect width="20" height="20" fill="white"/>
</clipPath>
</defs>
</svg>
