<svg width="20" height="20" viewBox="0 0 20 20" fill="none" xmlns="http://www.w3.org/2000/svg">
<g clip-path="url(#clip0)">
<path d="M18.934 8.10147L3.0277 0.404436C1.97995 -0.103382 0.718946 0.334314 0.211086 1.38207C-0.047867 1.91632 -0.0695253 2.53498 0.151423 3.08608L2.63629 9.29609H20C19.8172 8.77222 19.4337 8.34247 18.934 8.10147Z" fill="#19304C"/>
<path d="M2.63593 10.7017L0.151065 16.9131C-0.280126 17.9975 0.249433 19.2262 1.33387 19.6574C1.5794 19.7551 1.84112 19.8058 2.10534 19.8069C2.42461 19.8069 2.73977 19.7349 3.0273 19.5961L18.9336 11.8963C19.4333 11.6552 19.8168 11.2255 19.9996 10.7017H2.63593Z" fill="#19304C"/>
</g>
<defs>
<clipPath id="clip0">
<rect width="20" height="20" fill="white"/>
</clipPath>
</defs>
</svg>
