<svg width="50" height="50" viewBox="0 0 50 50" fill="none" xmlns="http://www.w3.org/2000/svg">
<path d="M27.001 21.1555C27.0556 21.2054 27.1238 21.2313 27.1921 21.2313C27.2664 21.2313 27.3408 21.2002 27.3955 21.1433L28.3462 20.1242C28.3963 20.0696 28.4236 19.9984 28.422 19.924C28.4175 19.8511 28.3886 19.7814 28.3325 19.7299L26.4558 17.9768C26.3443 17.8721 26.1668 17.8789 26.0631 17.9904L25.1106 19.0079C25.0613 19.0618 25.0332 19.1338 25.0364 19.2082C25.0394 19.281 25.069 19.3507 25.1251 19.4022L27.001 21.1555Z" fill="#193B67"/>
<path d="M22.8224 25.3809C22.8747 25.4326 22.9445 25.4569 23.0136 25.4569C23.0879 25.4569 23.1607 25.4266 23.2153 25.3689L24.1653 24.352C24.2169 24.2974 24.2448 24.2261 24.2434 24.151C24.2397 24.0767 24.2093 24.0069 24.1533 23.9569L22.2772 22.2024C22.1649 22.1 21.9883 22.1045 21.8829 22.2167L20.932 23.2335C20.8828 23.2881 20.8562 23.3609 20.8577 23.4337C20.8592 23.5072 20.8904 23.577 20.9449 23.6278L22.8224 25.3809Z" fill="#193B67"/>
<path d="M30.5043 16.9673C30.5589 17.0173 30.6256 17.044 30.6938 17.044C30.7697 17.044 30.8454 17.0129 30.8985 16.9552L31.8494 15.9369C31.8994 15.8823 31.9268 15.811 31.9236 15.7374C31.9206 15.6631 31.8918 15.5949 31.8357 15.5433L29.9612 13.7887C29.8491 13.6832 29.6716 13.6908 29.5669 13.8016L28.616 14.8185C28.5659 14.8731 28.5386 14.9459 28.5417 15.0172C28.5447 15.0915 28.5736 15.1619 28.6297 15.2113L30.5043 16.9673Z" fill="#193B67"/>
<path d="M49.6716 9.44513L39.9066 0.151141C39.6808 -0.0604394 39.3304 -0.0483006 39.1181 0.177637L35.6679 3.86587C35.5677 3.97433 35.5132 4.11843 35.5179 4.26475C35.5223 4.41185 35.586 4.5536 35.6923 4.65293L39.3486 8.2092L37.6426 10.0335L31.9617 4.71963C31.7358 4.50805 31.3855 4.52097 31.1731 4.74625L3.85435 33.9642C3.75502 34.069 3.69968 34.2145 3.70425 34.3616C3.71025 34.5103 3.77251 34.6497 3.87941 34.7499L9.10979 39.6375L0.303305 49.0611C0.130491 49.2432 0.102428 49.5193 0.236607 49.7345C0.338939 49.9013 0.520106 49.9999 0.709759 49.9999C0.762751 49.9999 0.815222 49.9893 0.869781 49.974L6.18056 48.3909C6.27845 48.362 6.36264 48.3105 6.42921 48.2377L11.9698 42.3125L17.3118 47.3079C17.5371 47.5173 17.8896 47.5051 18.1012 47.2805L45.4191 18.0633C45.5176 17.9578 45.5737 17.8138 45.5692 17.666C45.5646 17.5173 45.5009 17.3771 45.3932 17.2776L40.3234 12.5386L42.0309 10.7119L45.4568 13.9465C45.6813 14.1565 46.0331 14.1452 46.2454 13.92L49.6969 10.2304C49.7971 10.1235 49.8517 9.98015 49.847 9.83305C49.8445 9.68399 49.7808 9.54446 49.6716 9.44513ZM41.0774 17.8187L17.5623 42.9633L8.20003 34.2115L31.713 9.06452L41.0774 17.8187Z" fill="#193B67"/>
<path d="M9.93259 34.3856L17.1073 41.0719C17.2142 41.1706 17.3513 41.2236 17.4879 41.2236C17.6334 41.2236 17.7797 41.1661 17.8882 41.0538L31.6445 26.844C31.7978 26.6832 31.8418 26.4497 31.7584 26.2434C31.6734 26.0387 31.4747 25.9036 31.2564 25.8977C31.2564 25.8977 30.9682 25.8916 30.5086 25.8916C28.7328 25.8916 25.5314 25.9796 24.0376 26.5648C22.8434 27.0364 19.4486 27.2004 16.6688 27.2004L16.248 27.1988C16.1146 27.2064 15.9455 27.2595 15.8371 27.3716L9.90974 33.5955C9.80663 33.7031 9.74972 33.8472 9.75442 33.9957C9.75899 34.1459 9.82425 34.2855 9.93259 34.3856Z" fill="#193B67"/>
</svg>
